<?xml version="1.0" encoding="utf-8"?>
<!DOCTYPE svg PUBLIC "-//W3C//DTD SVG 1.1//EN" "http://www.w3.org/Graphics/SVG/1.1/DTD/svg11.dtd">
<svg xmlns="http://www.w3.org/2000/svg" xmlns:xlink="http://www.w3.org/1999/xlink" version="1.1" viewBox="0 0 512 512" enable-background="new 0 0 512 512" width="512px" height="512px">
  <g>
    <g>
      <polygon points="32.8,223.8 12,223.8 12,400.3 147,400.3 147,493.7 167.8,493.7 167.8,379.5 32.8,379.5   " fill="#FFFFFF"/>
      <polygon points="239.4,286.1 239.4,306.9 260.2,306.9 260.2,493.7 280.9,493.7 280.9,306.9 479.2,306.9 479.2,493.7 500,493.7     500,286.1   " fill="#FFFFFF"/>
      <path d="m80.6,333.9v-146.4c0-17.6 14.5-32.2 32.2-32.2s32.2,14.5 32.2,32.2v38.4l115.2,17.6 3.1-20.8-97.6-15.6v-19.7c0-29.1-23.9-52.9-52.9-52.9s-52.9,23.9-52.9,52.9v166.1h124.6l29.1,142.2 20.8-4.2-33.4-157.6h-120.4z" fill="#FFFFFF"/>
      <path d="m116.9,109.6c26,0 46.7-20.8 46.7-46.7 0-26-20.8-46.7-46.7-46.7s-46.7,20.8-46.7,46.7c0,26 20.7,46.7 46.7,46.7zm0-72.6c14.5,0 26,11.4 26,26 0,14.5-11.4,26-26,26s-26-11.4-26-26c0-14.6 11.5-26 26-26z" fill="#FFFFFF"/>
      <polygon points="291.3,265.3 381.6,265.3 414.8,176.1 395.1,168.8 367.1,244.6 291.3,244.6   " fill="#FFFFFF"/>
      <path d="m299.1,156.1h-18.2c0,20.4 14.4,37.5 33.6,41.7v20.1h18.2v-20.1c19.2-4.2 33.6-21.3 33.6-41.7 0-20.4-14.4-37.5-33.6-41.7v-48.2c9,3.6 15.4,12.4 15.4,22.7h18.2c0-20.4-14.4-37.5-33.6-41.7v-20.2h-18.2v20.1c-19.2,4.2-33.6,21.3-33.6,41.7 0,20.4 14.4,37.5 33.6,41.7v48.2c-9-3.6-15.4-12.4-15.4-22.6zm33.6-22.7c9,3.6 15.4,12.4 15.4,22.7 0,10.3-6.4,19.1-15.4,22.7v-45.4zm-33.6-44.5c0-10.3 6.4-19.1 15.4-22.7v45.4c-9-3.7-15.4-12.5-15.4-22.7z" fill="#FFFFFF"/>
    </g>
  </g>
</svg>
